PathFileType	4	(X/Y/Z)	/Users/itak/Documents/Research/Walk-IL/dataset/trc/00154_00007.trc
DataRate	CameraRate	NumFrames	NumMarkers	Units	OrigDataRate	OrigDataStartFrame	OrigNumFrames
100.000000	100.000000	4	53	mm	100.000000	126	504
Frame#	Time	RPSI			LPSI			L3			STRN			T10			C7			CLAV			RBAK			LBAK			LSHO			LUPA			LAEL			LAOL			LWTS			LWPS			LFRA			LIFD			LHPS			LHTS			RSHO			RUPA			RAEL			RAOL			RWTS			RWPS			RFRA			RIFD			RHTS			RHPS			RBHD			LFHD			RFHD			LBHD			LHIP			RHIP			RASI			LASI			LKNE			LTHI			LANK			LTIP			LTOE			LMT1			LMT5			LHEE			RKNE			RTHI			RANK			RTIP			RTOE			RMT1			RMT5			RHEE			
		X1	Y1	Z1	X2	Y2	Z2	X3	Y3	Z3	X4	Y4	Z4	X5	Y5	Z5	X6	Y6	Z6	X7	Y7	Z7	X8	Y8	Z8	X9	Y9	Z9	X10	Y10	Z10	X11	Y11	Z11	X12	Y12	Z12	X13	Y13	Z13	X14	Y14	Z14	X15	Y15	Z15	X16	Y16	Z16	X17	Y17	Z17	X18	Y18	Z18	X19	Y19	Z19	X20	Y20	Z20	X21	Y21	Z21	X22	Y22	Z22	X23	Y23	Z23	X24	Y24	Z24	X25	Y25	Z25	X26	Y26	Z26	X27	Y27	Z27	X28	Y28	Z28	X29	Y29	Z29	X30	Y30	Z30	X31	Y31	Z31	X32	Y32	Z32	X33	Y33	Z33	X34	Y34	Z34	X35	Y35	Z35	X36	Y36	Z36	X37	Y37	Z37	X38	Y38	Z38	X39	Y39	Z39	X40	Y40	Z40	X41	Y41	Z41	X42	Y42	Z42	X43	Y43	Z43	X44	Y44	Z44	X45	Y45	Z45	X46	Y46	Z46	X47	Y47	Z47	X48	Y48	Z48	X49	Y49	Z49	X50	Y50	Z50	X51	Y51	Z51	X52	Y52	Z52	X53	Y53	Z53	

127	1.26	-1258.446899414062	1114.707397460938	-568.6806640625	-1257.115356445312	1118.980346679688	-704.5311889648438	-1263.003662109375	1158.624755859375	-642.4490966796875	-1015.459899902344	1331.67578125	-644.9220581054688	-1274.420654296875	1315.015991210938	-650.32763671875	-1194.441284179688	1599.26123046875	-669.5078735351562	-1029.934936523438	1470.642822265625	-650.8244018554688	-1280.598510742188	1427.217041015625	-580.55322265625	-1198.561645507812	1578.488159179688	-772.2057495117188	-1111.147216796875	1550.125854492188	-835.4344482421875	-1140.54443359375	1419.776123046875	-904.7109985351562	-1145.990356445312	1197.780395507812	-920.3718872070312	-1220.970703125	1195.952392578125	-875.7672729492188	-1088.892211914062	932.6293334960938	-850.61669921875	-1163.127319335938	915.1146850585938	-892.7803344726562	-1142.6279296875	1080.122802734375	-917.9346923828125	-1102.99560546875	741.3638916015625	-821.3671875	-1145.37744140625	837.5817260742188	-884.6181030273438	-1082.791015625	842.6415405273438	-855.48779296875	-1151.323852539062	1576.293579101562	-484.683837890625	-1181.411010742188	1507.210205078125	-421.3522644042969	-1235.849853515625	1217.064086914062	-398.7572937011719	-1238.564819335938	1216.89697265625	-495.5212707519531	-1133.644775390625	953.891357421875	-408.8904724121094	-1209.905517578125	949.749755859375	-378.1171264648438	-1224.747192382812	1141.641357421875	-382.1612854003906	-1141.068969726562	756.6484985351562	-424.9660034179688	-1122.132446289062	842.9468994140625	-402.6829223632812	-1189.443115234375	845.170654296875	-373.2378234863281	-1150.082885742188	1751.783081054688	-588.4906005859375	-977.4258422851562	1821.85205078125	-705.3758544921875	-988.0506591796875	1822.091796875	-576.10986328125	-1147.308715820312	1755.393920898438	-724.0283203125	-1174.80712890625	1021.600463867188	-813.2640380859375	-1127.055908203125	1018.840087890625	-451.7528076171875	-1048.176879882812	1083.642211914062	-510.9122009277344	-1059.758544921875	1076.885620117188	-777.2506103515625	-1189.369262695312	518.1709594726562	-755.7584838867188	-1198.43017578125	664.8670043945312	-791.6597900390625	-1351.824951171875	32.67253112792969	-709.8374633789062	-1315.66748046875	281.6471862792969	-762.7216796875	-1122.2998046875	37.80637359619141	-649.9252319335938	-1202.595825195312	43.35729598999023	-618.5718994140625	-1226.73828125	31.36091995239258	-736.5023193359375	-1421.72607421875	36.59473419189453	-648.7235107421875	-926.4652099609375	574.7842407226562	-516.4671630859375	-1034.438354492188	831.4309692382812	-475.09326171875	-1054.634033203125	57.65531158447266	-517.5966796875	-954.5519409179688	435.1051940917969	-500.9507141113281	-831.1995849609375	83.20632934570312	-554.12109375	-882.7288818359375	63.29947280883789	-600.7095947265625	-926.4287109375	61.45863723754883	-490.0957946777344	-1110.14013671875	62.74522018432617	-567.54248046875	
128	1.27	-1254.009033203125	1114.221435546875	-568.7474365234375	-1252.8583984375	1118.419067382812	-704.6024780273438	-1258.6337890625	1158.158203125	-642.5357666015625	-1010.674743652344	1330.73095703125	-645.3668823242188	-1269.659545898438	1314.604736328125	-650.467041015625	-1189.046264648438	1598.68017578125	-669.7756958007812	-1024.8427734375	1469.722900390625	-651.2872924804688	-1275.530517578125	1426.8828125	-580.75146484375	-1193.335571289062	1577.905639648438	-772.4722900390625	-1106.078735351562	1549.375122070312	-835.8120727539062	-1135.8740234375	1419.111083984375	-905.0672607421875	-1141.935302734375	1197.111083984375	-920.7308959960938	-1216.88525390625	1195.456420898438	-876.0302124023438	-1084.905639648438	932.038818359375	-850.7625122070312	-1159.162231445312	914.4764404296875	-892.8130493164062	-1138.685424804688	1079.449829101562	-918.1893310546875	-1098.965576171875	740.8154296875	-821.27685546875	-1141.422119140625	836.9495849609375	-884.5718994140625	-1078.8369140625	842.0445556640625	-855.5079345703125	-1145.768310546875	1575.634765625	-484.9909057617188	-1175.962524414062	1506.631103515625	-421.6262817382812	-1231.396118164062	1216.738403320312	-399.1246337890625	-1234.2275390625	1216.62109375	-495.9041442871094	-1131.171508789062	952.798828125	-409.4041748046875	-1207.329711914062	949.2847290039062	-378.5129699707031	-1220.77880859375	1141.280029296875	-382.5676574707031	-1139.939697265625	755.65869140625	-425.5285949707031	-1120.472412109375	841.7767333984375	-403.3301391601562	-1187.74072265625	844.53857421875	-373.716796875	-1144.711303710938	1750.866455078125	-588.8834228515625	-971.8260498046875	1821.08154296875	-705.4176025390625	-982.644287109375	1821.19677734375	-576.1617431640625	-1141.689575195312	1754.60498046875	-724.3878173828125	-1170.854614257812	1020.880981445312	-813.401123046875	-1122.456787109375	1018.352111816406	-451.9217529296875	-1043.704956054688	1082.907470703125	-511.3093566894531	-1055.59033203125	1075.98974609375	-777.5487060546875	-1187.048583984375	517.5536499023438	-755.8880615234375	-1195.671020507812	664.3212890625	-791.6746826171875	-1351.796142578125	32.69836807250977	-709.7821044921875	-1314.593627929688	281.6286926269531	-762.7305908203125	-1122.18115234375	37.94620895385742	-650.07763671875	-1202.58056640625	43.31112670898438	-618.6103515625	-1226.755615234375	31.40054702758789	-736.6675415039062	-1421.703735351562	36.80373382568359	-648.6077880859375	-922.3929443359375	574.48291015625	-516.9559936523438	-1030.263671875	830.8870239257812	-475.0598754882812	-1034.486938476562	53.78309631347656	-520.6828002929688	-946.5955810546875	434.14306640625	-501.9836120605469	-812.1828002929688	85.94748687744141	-558.1921997070312	-863.1867065429688	64.75786590576172	-604.5121459960938	-906.3651733398438	61.16360473632812	-493.81591796875	-1090.1572265625	57.41097259521484	-570.4566650390625	
129	1.28	-1249.4169921875	1113.665405273438	-568.7978515625	-1248.457885742188	1117.804077148438	-704.6570434570312	-1254.118774414062	1157.633911132812	-642.599853515625	-1005.749328613281	1329.741333007812	-645.7677001953125	-1264.763061523438	1314.133178710938	-650.57177734375	-1183.53173828125	1598.045043945312	-670.005615234375	-1019.63916015625	1468.746948242188	-651.6991577148438	-1270.3359375	1426.491821289062	-580.9117431640625	-1187.973510742188	1577.268188476562	-772.697998046875	-1100.878051757812	1548.57958984375	-836.145263671875	-1131.0537109375	1418.397827148438	-905.3790283203125	-1137.704956054688	1196.3916015625	-921.0355224609375	-1212.623779296875	1194.914184570312	-876.2433471679688	-1080.80224609375	931.3742065429688	-850.8817138671875	-1155.095703125	913.7942504882812	-892.8226928710938	-1134.58056640625	1078.731201171875	-918.3973388671875	-1094.84326171875	740.1885986328125	-821.1775512695312	-1137.368041992188	836.2635498046875	-884.5031127929688	-1074.794921875	841.3696899414062	-855.5029296875	-1140.086181640625	1574.9296875	-485.2591552734375	-1170.413696289062	1506.007690429688	-421.8693542480469	-1226.811767578125	1216.361694335938	-399.4487915039062	-1229.760986328125	1216.296264648438	-496.2424926757812	-1128.42919921875	951.7238159179688	-409.8878784179688	-1204.512084960938	948.7890014648438	-378.8799438476562	-1216.646606445312	1140.86962890625	-382.9301452636719	-1138.462280273438	754.670166015625	-426.0859680175781	-1118.5390625	840.6156005859375	-403.9684753417969	-1185.7529296875	843.8889770507812	-374.1834716796875	-1139.221069335938	1749.898315429688	-589.2303466796875	-966.1284790039062	1820.262939453125	-705.424560546875	-977.1317138671875	1820.246948242188	-576.1787109375	-1135.961791992188	1753.768188476562	-724.7030029296875	-1166.74951171875	1020.117553710938	-813.5233764648438	-1117.716918945312	1017.78076171875	-452.0788269042969	-1039.0576171875	1082.104736328125	-511.6753540039062	-1051.264404296875	1075.057983398438	-777.8173828125	-1184.61572265625	516.9007568359375	-755.9890747070312	-1192.788208007812	663.7493286132812	-791.6646118164062	-1351.760498046875	32.73201751708984	-709.7124633789062	-1313.452026367188	281.6446533203125	-762.7359008789062	-1122.013916015625	38.06455993652344	-650.2006225585938	-1202.555541992188	43.22826766967773	-618.6279296875	-1226.77001953125	31.48885726928711	-736.8383178710938	-1421.659423828125	37.01357650756836	-648.478515625	-918.5056762695312	573.9461669921875	-517.326904296875	-1026.012939453125	830.1607666015625	-474.890625	-1014.136291503906	50.18509674072266	-523.8275756835938	-938.6926879882812	433.08203125	-502.9721374511719	-793.1689453125	88.79190826416016	-562.5840454101562	-843.6812744140625	66.37152099609375	-608.5693359375	-886.1587524414062	61.07039260864258	-497.7056579589844	-1069.996948242188	52.33930206298828	-573.4109497070312	
130	1.29	-1244.669921875	1113.035278320312	-568.8302001953125	-1243.91796875	1117.132568359375	-704.6924438476562	-1249.462524414062	1157.046752929688	-642.6383056640625	-1000.687133789062	1328.703369140625	-646.1290283203125	-1259.727416992188	1313.596801757812	-650.6354370117188	-1177.904541015625	1597.352172851562	-670.197265625	-1014.31884765625	1467.716918945312	-652.059814453125	-1265.006469726562	1426.030639648438	-581.02490234375	-1182.480224609375	1576.573608398438	-772.87890625	-1095.5458984375	1547.73486328125	-836.4329223632812	-1126.083984375	1417.630859375	-905.6429443359375	-1133.292846679688	1195.618041992188	-921.2838745117188	-1208.175537109375	1194.31982421875	-876.4087524414062	-1076.580322265625	930.6282348632812	-850.9747924804688	-1150.93115234375	913.0629272460938	-892.8121337890625	-1130.308471679688	1077.96142578125	-918.56005859375	-1090.644897460938	739.4754028320312	-821.0687255859375	-1133.213989257812	835.5172119140625	-884.4169921875	-1070.6611328125	840.6123657226562	-855.4821166992188	-1134.277709960938	1574.170166015625	-485.484130859375	-1164.763549804688	1505.333862304688	-422.0799865722656	-1222.101928710938	1215.9267578125	-399.731201171875	-1225.154418945312	1215.914306640625	-496.5378723144531	-1125.41162109375	950.6620483398438	-410.3345031738281	-1201.4501953125	948.2534790039062	-379.2200317382812	-1212.3544921875	1140.40234375	-383.2492370605469	-1136.63037109375	753.6824951171875	-426.6351623535156	-1116.3125	839.4600830078125	-404.5818786621094	-1183.463989257812	843.2138671875	-374.6362915039062	-1133.608032226562	1748.879028320312	-589.5244140625	-960.3328857421875	1819.3916015625	-705.3955688476562	-971.5123291015625	1819.23583984375	-576.1570434570312	-1130.125854492188	1752.885009765625	-724.9713745117188	-1162.48876953125	1019.306274414062	-813.6324462890625	-1112.8310546875	1017.1220703125	-452.2253723144531	-1034.235107421875	1081.22900390625	-512.0176391601562	-1046.789672851562	1074.082641601562	-778.0681762695312	-1182.067260742188	516.2129516601562	-756.0576782226562	-1189.765991210938	663.1456298828125	-791.6218872070312	-1351.718017578125	32.77531814575195	-709.62548828125	-1312.247314453125	281.698974609375	-762.7256469726562	-1121.7978515625	38.14398193359375	-650.2941284179688	-1202.537231445312	43.09070587158203	-618.615966796875	-1226.785278320312	31.61892890930176	-737.01025390625	-1421.590454101562	37.22334289550781	-648.3338623046875	-914.7832641601562	573.177978515625	-517.5889282226562	-1021.693969726562	829.2511596679688	-474.59765625	-993.6752319335938	46.92461776733398	-527.0101928710938	-930.8423461914062	431.9500122070312	-503.9195556640625	-774.2094116210938	91.71053314208984	-567.254638671875	-824.2879638671875	68.12209320068359	-612.8413696289062	-865.8904418945312	61.22781372070312	-501.7242736816406	-1049.76025390625	47.60778045654297	-576.380615234375	
